<svg width="309" height="103" viewBox="0 0 309 103" fill="none" xmlns="http://www.w3.org/2000/svg">
<rect x="24" y="27" width="42" height="42" rx="4" fill="#0CB8B6"/>
<g filter="url(#filter0_d_44_14)">
<rect x="8" y="8" width="285" height="79" rx="10" fill="white"/>
</g>
<path d="M82.1009 55V40.4545H88.1094C89.1984 40.4545 90.1383 40.651 90.929 41.044C91.7244 41.4323 92.3376 41.991 92.7685 42.7202C93.1993 43.4446 93.4148 44.304 93.4148 45.2983C93.4148 46.3068 93.1946 47.1638 92.7543 47.8693C92.3139 48.5701 91.6889 49.1051 90.8793 49.4744C90.0696 49.839 89.1108 50.0213 88.0028 50.0213H84.2031V47.2514H87.3494C87.8797 47.2514 88.3224 47.1828 88.6776 47.0455C89.0374 46.9034 89.3097 46.6903 89.4943 46.4062C89.679 46.1174 89.7713 45.7481 89.7713 45.2983C89.7713 44.8485 89.679 44.4768 89.4943 44.1832C89.3097 43.8849 89.0374 43.6624 88.6776 43.5156C88.3177 43.3641 87.875 43.2884 87.3494 43.2884H85.6165V55H82.1009ZM90.2898 48.3523L93.9119 55H90.0767L86.5256 48.3523H90.2898ZM100.228 55.206C99.0865 55.206 98.1017 54.9811 97.2731 54.5312C96.4492 54.0767 95.8147 53.4304 95.3697 52.5923C94.9293 51.7495 94.7092 50.7481 94.7092 49.5881C94.7092 48.4612 94.9317 47.4763 95.3768 46.6335C95.8219 45.786 96.4492 45.1278 97.2589 44.6591C98.0685 44.1856 99.0226 43.9489 100.121 43.9489C100.898 43.9489 101.608 44.0696 102.252 44.3111C102.896 44.5526 103.452 44.91 103.921 45.3835C104.39 45.857 104.754 46.4418 105.015 47.1378C105.275 47.8291 105.405 48.6222 105.405 49.517V50.3835H95.9237V48.3665H102.174C102.169 47.9972 102.081 47.6681 101.911 47.3793C101.74 47.0904 101.506 46.8655 101.208 46.7045C100.914 46.5388 100.576 46.456 100.192 46.456C99.8039 46.456 99.4558 46.5436 99.1481 46.7188C98.8403 46.8892 98.5965 47.1236 98.4165 47.4219C98.2366 47.7154 98.1419 48.0492 98.1325 48.4233V50.4759C98.1325 50.9209 98.2201 51.3116 98.3952 51.6477C98.5704 51.9792 98.819 52.2372 99.141 52.4219C99.4629 52.6065 99.8465 52.6989 100.292 52.6989C100.599 52.6989 100.879 52.6562 101.13 52.571C101.381 52.4858 101.596 52.3603 101.776 52.1946C101.956 52.0289 102.091 51.8253 102.181 51.5838L105.37 51.6761C105.237 52.3911 104.946 53.0137 104.496 53.544C104.051 54.0696 103.466 54.4792 102.742 54.7727C102.017 55.0616 101.179 55.206 100.228 55.206ZM112.264 59.3182C111.227 59.3182 110.339 59.1738 109.601 58.8849C108.862 58.5961 108.282 58.2008 107.861 57.6989C107.439 57.197 107.186 56.6288 107.101 55.9943L110.389 55.8097C110.451 56.0322 110.564 56.2263 110.73 56.392C110.901 56.5578 111.121 56.6856 111.391 56.7756C111.665 56.8655 111.987 56.9105 112.357 56.9105C112.939 56.9105 113.42 56.7685 113.798 56.4844C114.182 56.205 114.374 55.715 114.374 55.0142V53.0966H114.253C114.116 53.4328 113.907 53.7334 113.628 53.9986C113.348 54.2637 113 54.4721 112.584 54.6236C112.172 54.7751 111.698 54.8509 111.163 54.8509C110.368 54.8509 109.639 54.6662 108.976 54.2969C108.318 53.9228 107.79 53.3452 107.392 52.5639C106.999 51.7779 106.803 50.767 106.803 49.5312C106.803 48.2576 107.006 47.2088 107.413 46.3849C107.821 45.5563 108.353 44.9432 109.011 44.5455C109.674 44.1477 110.387 43.9489 111.149 43.9489C111.722 43.9489 112.212 44.0483 112.619 44.2472C113.031 44.4413 113.37 44.6922 113.635 45C113.9 45.3078 114.101 45.6274 114.239 45.9588H114.338V44.0909H117.797V55.0426C117.797 55.9659 117.565 56.7448 117.101 57.3793C116.637 58.0137 115.988 58.4943 115.155 58.821C114.321 59.1525 113.358 59.3182 112.264 59.3182ZM112.371 52.3224C112.792 52.3224 113.152 52.2112 113.45 51.9886C113.749 51.7661 113.978 51.4465 114.139 51.0298C114.3 50.6132 114.381 50.1136 114.381 49.5312C114.381 48.9394 114.3 48.4304 114.139 48.0043C113.983 47.5734 113.753 47.242 113.45 47.0099C113.152 46.7779 112.792 46.6619 112.371 46.6619C111.94 46.6619 111.575 46.7803 111.277 47.017C110.979 47.2538 110.751 47.5876 110.595 48.0185C110.444 48.4446 110.368 48.9489 110.368 49.5312C110.368 50.1136 110.446 50.6132 110.602 51.0298C110.759 51.4465 110.983 51.7661 111.277 51.9886C111.575 52.2112 111.94 52.3224 112.371 52.3224ZM127.049 50.2912V44.0909H130.515V55H127.206V52.9688H127.092C126.85 53.6364 126.439 54.1667 125.856 54.5597C125.279 54.9479 124.58 55.142 123.761 55.142C123.018 55.142 122.364 54.9716 121.801 54.6307C121.237 54.2898 120.799 53.8139 120.487 53.2031C120.174 52.5876 120.016 51.8679 120.011 51.044V44.0909H123.484V50.3622C123.489 50.9541 123.645 51.4205 123.953 51.7614C124.261 52.1023 124.68 52.2727 125.21 52.2727C125.556 52.2727 125.866 52.197 126.14 52.0455C126.42 51.8892 126.64 51.6643 126.801 51.3707C126.967 51.0724 127.049 50.7126 127.049 50.2912ZM136.199 40.4545V55H132.726V40.4545H136.199ZM141.485 55.1847C140.789 55.1847 140.171 55.0687 139.631 54.8366C139.096 54.5999 138.672 54.2448 138.36 53.7713C138.052 53.2931 137.898 52.6941 137.898 51.9744C137.898 51.3684 138.005 50.857 138.218 50.4403C138.431 50.0237 138.724 49.6851 139.098 49.4247C139.472 49.1643 139.903 48.9678 140.391 48.8352C140.879 48.6979 141.4 48.6056 141.953 48.5582C142.574 48.5014 143.073 48.4422 143.452 48.3807C143.831 48.3144 144.105 48.2221 144.276 48.1037C144.451 47.9806 144.539 47.8078 144.539 47.5852V47.5497C144.539 47.1851 144.413 46.9034 144.162 46.7045C143.911 46.5057 143.573 46.4062 143.147 46.4062C142.687 46.4062 142.318 46.5057 142.039 46.7045C141.759 46.9034 141.582 47.178 141.506 47.5284L138.303 47.4148C138.398 46.7519 138.641 46.16 139.034 45.6392C139.432 45.1136 139.977 44.7017 140.668 44.4034C141.364 44.1004 142.2 43.9489 143.175 43.9489C143.871 43.9489 144.513 44.0317 145.1 44.1974C145.687 44.3584 146.198 44.5952 146.634 44.9077C147.069 45.2154 147.406 45.5942 147.642 46.044C147.884 46.4938 148.005 47.0076 148.005 47.5852V55H144.738V53.4801H144.652C144.458 53.8494 144.21 54.1619 143.907 54.4176C143.608 54.6733 143.256 54.8651 142.848 54.9929C142.446 55.1207 141.991 55.1847 141.485 55.1847ZM142.557 52.9119C142.931 52.9119 143.267 52.8362 143.566 52.6847C143.869 52.5331 144.11 52.3248 144.29 52.0597C144.47 51.7898 144.56 51.4773 144.56 51.1222V50.0852C144.461 50.1373 144.34 50.1847 144.198 50.2273C144.06 50.2699 143.909 50.3101 143.743 50.348C143.578 50.3859 143.407 50.419 143.232 50.4474C143.057 50.4759 142.889 50.5019 142.728 50.5256C142.401 50.5777 142.122 50.6581 141.89 50.767C141.662 50.8759 141.487 51.018 141.364 51.1932C141.246 51.3636 141.186 51.5672 141.186 51.804C141.186 52.1638 141.314 52.4384 141.57 52.6278C141.83 52.8172 142.159 52.9119 142.557 52.9119ZM150.128 55V44.0909H153.502V46.0795H153.615C153.814 45.3598 154.139 44.8248 154.588 44.4744C155.038 44.1193 155.561 43.9418 156.158 43.9418C156.319 43.9418 156.485 43.9536 156.655 43.9773C156.826 43.9962 156.984 44.027 157.131 44.0696V47.0881C156.965 47.0312 156.748 46.9863 156.478 46.9531C156.212 46.92 155.976 46.9034 155.767 46.9034C155.355 46.9034 154.984 46.9957 154.652 47.1804C154.326 47.3603 154.068 47.6136 153.878 47.9403C153.694 48.2623 153.601 48.6411 153.601 49.0767V55H150.128ZM176.046 45.7244H172.495C172.448 45.3598 172.351 45.0308 172.204 44.7372C172.057 44.4437 171.863 44.1927 171.621 43.9844C171.38 43.776 171.094 43.6174 170.762 43.5085C170.435 43.3949 170.073 43.3381 169.675 43.3381C168.97 43.3381 168.362 43.5109 167.85 43.8565C167.344 44.2022 166.953 44.7017 166.678 45.3551C166.408 46.0085 166.273 46.7992 166.273 47.7273C166.273 48.6932 166.411 49.5028 166.685 50.1562C166.965 50.8049 167.355 51.295 167.857 51.6264C168.364 51.9531 168.963 52.1165 169.654 52.1165C170.042 52.1165 170.395 52.0668 170.712 51.9673C171.034 51.8679 171.316 51.7235 171.558 51.5341C171.804 51.34 172.005 51.1056 172.161 50.831C172.322 50.5516 172.433 50.2367 172.495 49.8864L176.046 49.9077C175.985 50.5516 175.798 51.1861 175.485 51.8111C175.177 52.4361 174.754 53.0066 174.214 53.5227C173.674 54.0341 173.016 54.4413 172.239 54.7443C171.468 55.0473 170.582 55.1989 169.583 55.1989C168.267 55.1989 167.088 54.91 166.046 54.3324C165.009 53.75 164.19 52.9025 163.589 51.7898C162.987 50.6771 162.687 49.3229 162.687 47.7273C162.687 46.1269 162.992 44.7704 163.603 43.6577C164.214 42.545 165.04 41.6998 166.082 41.1222C167.123 40.5445 168.29 40.2557 169.583 40.2557C170.464 40.2557 171.278 40.3788 172.026 40.625C172.774 40.8665 173.433 41.2216 174.001 41.6903C174.569 42.1544 175.031 42.7249 175.386 43.402C175.741 44.0791 175.961 44.8532 176.046 45.7244ZM181.531 48.7784V55H178.058V40.4545H181.417V46.0938H181.538C181.784 45.4214 182.187 44.8958 182.745 44.517C183.309 44.1383 183.998 43.9489 184.812 43.9489C185.579 43.9489 186.247 44.1193 186.815 44.4602C187.383 44.7964 187.824 45.2723 188.136 45.8878C188.453 46.5033 188.609 47.223 188.605 48.0469V55H185.132V48.7287C185.136 48.1226 184.985 47.6491 184.677 47.3082C184.369 46.9673 183.936 46.7969 183.377 46.7969C183.013 46.7969 182.691 46.8774 182.412 47.0384C182.137 47.1946 181.922 47.4195 181.765 47.7131C181.614 48.0066 181.536 48.3617 181.531 48.7784ZM195.872 55.206C194.731 55.206 193.746 54.9811 192.918 54.5312C192.094 54.0767 191.459 53.4304 191.014 52.5923C190.574 51.7495 190.354 50.7481 190.354 49.5881C190.354 48.4612 190.576 47.4763 191.021 46.6335C191.466 45.786 192.094 45.1278 192.903 44.6591C193.713 44.1856 194.667 43.9489 195.766 43.9489C196.542 43.9489 197.252 44.0696 197.896 44.3111C198.54 44.5526 199.097 44.91 199.565 45.3835C200.034 45.857 200.399 46.4418 200.659 47.1378C200.92 47.8291 201.05 48.6222 201.05 49.517V50.3835H191.568V48.3665H197.818C197.813 47.9972 197.726 47.6681 197.555 47.3793C197.385 47.0904 197.151 46.8655 196.852 46.7045C196.559 46.5388 196.22 46.456 195.837 46.456C195.448 46.456 195.1 46.5436 194.793 46.7188C194.485 46.8892 194.241 47.1236 194.061 47.4219C193.881 47.7154 193.786 48.0492 193.777 48.4233V50.4759C193.777 50.9209 193.865 51.3116 194.04 51.6477C194.215 51.9792 194.464 52.2372 194.786 52.4219C195.107 52.6065 195.491 52.6989 195.936 52.6989C196.244 52.6989 196.523 52.6562 196.774 52.571C197.025 52.4858 197.241 52.3603 197.42 52.1946C197.6 52.0289 197.735 51.8253 197.825 51.5838L201.014 51.6761C200.882 52.3911 200.59 53.0137 200.141 53.544C199.696 54.0696 199.111 54.4792 198.386 54.7727C197.662 55.0616 196.824 55.206 195.872 55.206ZM207.916 55.206C206.765 55.206 205.778 54.9692 204.954 54.4957C204.135 54.0223 203.505 53.3641 203.065 52.5213C202.625 51.6738 202.404 50.6937 202.404 49.581C202.404 48.4635 202.625 47.4834 203.065 46.6406C203.51 45.7931 204.142 45.1326 204.961 44.6591C205.785 44.1856 206.768 43.9489 207.909 43.9489C208.917 43.9489 209.796 44.1312 210.544 44.4957C211.297 44.8603 211.884 45.3764 212.305 46.044C212.731 46.7069 212.956 47.4858 212.98 48.3807H209.734C209.668 47.822 209.478 47.384 209.166 47.0668C208.858 46.7495 208.456 46.5909 207.958 46.5909C207.556 46.5909 207.203 46.7045 206.9 46.9318C206.597 47.1544 206.36 47.4858 206.19 47.9261C206.024 48.3617 205.941 48.9015 205.941 49.5455C205.941 50.1894 206.024 50.7339 206.19 51.179C206.36 51.6193 206.597 51.9531 206.9 52.1804C207.203 52.4029 207.556 52.5142 207.958 52.5142C208.28 52.5142 208.565 52.4455 208.811 52.3082C209.062 52.1709 209.268 51.9697 209.429 51.7045C209.59 51.4347 209.691 51.108 209.734 50.7244H212.98C212.947 51.6241 212.722 52.41 212.305 53.0824C211.893 53.7547 211.313 54.2779 210.565 54.652C209.822 55.0213 208.939 55.206 207.916 55.206ZM217.889 52.1378L217.903 47.9972H218.386L221.455 44.0909H225.389L220.83 49.6875H219.913L217.889 52.1378ZM214.757 55V40.4545H218.23V55H214.757ZM221.533 55L218.678 50.4688L220.964 48.0043L225.545 55H221.533ZM233.67 50.2912V44.0909H237.136V55H233.827V52.9688H233.713C233.472 53.6364 233.06 54.1667 232.477 54.5597C231.9 54.9479 231.201 55.142 230.382 55.142C229.639 55.142 228.985 54.9716 228.422 54.6307C227.858 54.2898 227.42 53.8139 227.108 53.2031C226.795 52.5876 226.637 51.8679 226.632 51.044V44.0909H230.105V50.3622C230.11 50.9541 230.266 51.4205 230.574 51.7614C230.882 52.1023 231.301 52.2727 231.831 52.2727C232.177 52.2727 232.487 52.197 232.761 52.0455C233.041 51.8892 233.261 51.6643 233.422 51.3707C233.588 51.0724 233.67 50.7126 233.67 50.2912ZM239.347 59.0909V44.0909H242.784V45.9588H242.891C243.033 45.6274 243.234 45.3078 243.495 45C243.76 44.6922 244.096 44.4413 244.503 44.2472C244.915 44.0483 245.408 43.9489 245.98 43.9489C246.738 43.9489 247.446 44.1477 248.104 44.5455C248.767 44.9432 249.302 45.5563 249.709 46.3849C250.116 47.2135 250.32 48.2694 250.32 49.5526C250.32 50.7884 250.123 51.8229 249.73 52.6562C249.342 53.4896 248.817 54.1146 248.154 54.5312C247.496 54.9479 246.764 55.1562 245.959 55.1562C245.41 55.1562 244.934 55.0663 244.532 54.8864C244.129 54.7064 243.791 54.4697 243.516 54.1761C243.246 53.8826 243.038 53.5677 242.891 53.2315H242.82V59.0909H239.347ZM242.749 49.5455C242.749 50.1326 242.827 50.6439 242.983 51.0795C243.144 51.5152 243.374 51.8537 243.672 52.0952C243.975 52.3319 244.337 52.4503 244.759 52.4503C245.185 52.4503 245.547 52.3319 245.846 52.0952C246.144 51.8537 246.369 51.5152 246.52 51.0795C246.676 50.6439 246.755 50.1326 246.755 49.5455C246.755 48.9583 246.676 48.4493 246.52 48.0185C246.369 47.5876 246.144 47.2538 245.846 47.017C245.552 46.7803 245.19 46.6619 244.759 46.6619C244.333 46.6619 243.971 46.7779 243.672 47.0099C243.374 47.242 243.144 47.5734 242.983 48.0043C242.827 48.4351 242.749 48.9489 242.749 49.5455Z" fill="black"/>
<path d="M56.875 52.375C58.6699 52.375 60.125 50.9199 60.125 49.125C60.125 47.3301 58.6699 45.875 56.875 45.875C55.0801 45.875 53.625 47.3301 53.625 49.125C53.625 50.9199 55.0801 52.375 56.875 52.375Z" fill="#FFCC80"/>
<path d="M34.125 52.375C35.9199 52.375 37.375 50.9199 37.375 49.125C37.375 47.3301 35.9199 45.875 34.125 45.875C32.3301 45.875 30.875 47.3301 30.875 49.125C30.875 50.9199 32.3301 52.375 34.125 52.375Z" fill="#FFCC80"/>
<path d="M57.6875 43.4375C57.6875 33.1188 33.3125 36.6938 33.3125 43.4375V51.5625C33.3125 58.3063 38.7562 63.75 45.5 63.75C52.2438 63.75 57.6875 58.3063 57.6875 51.5625V43.4375Z" fill="#FFCC80"/>
<path d="M45.5 31.25C38.35 31.25 32.5 37.1 32.5 44.25V47.0937L34.2063 47.5812V43.4375L50.05 38.3187L56.7125 43.4375V47.5812L58.4188 47.0937V44.25C58.5 38.1562 54.1125 31.25 45.5 31.25Z" fill="#FFCC80"/>
<path d="M43.875 41H47.125V55.625H43.875V41Z" fill="#4CAF50"/>
<path d="M38.1875 46.6875H52.8125V49.9375H38.1875V46.6875Z" fill="#4CAF50"/>
<defs>
<filter id="filter0_d_44_14" x="0" y="0" width="309" height="103" filterUnits="userSpaceOnUse" color-interpolation-filters="sRGB">
<feFlood flood-opacity="0" result="BackgroundImageFix"/>
<feColorMatrix in="SourceAlpha" type="matrix" values="0 0 0 0 0 0 0 0 0 0 0 0 0 0 0 0 0 0 127 0" result="hardAlpha"/>
<feMorphology radius="2" operator="dilate" in="SourceAlpha" result="effect1_dropShadow_44_14"/>
<feOffset dx="4" dy="4"/>
<feGaussianBlur stdDeviation="5"/>
<feComposite in2="hardAlpha" operator="out"/>
<feColorMatrix type="matrix" values="0 0 0 0 0 0 0 0 0 0 0 0 0 0 0 0 0 0 0.25 0"/>
<feBlend mode="normal" in2="BackgroundImageFix" result="effect1_dropShadow_44_14"/>
<feBlend mode="normal" in="SourceGraphic" in2="effect1_dropShadow_44_14" result="shape"/>
</filter>
</defs>
</svg>
